<mxfile host="drawio-plugin" modified="2022-07-29T10:08:42.645Z" agent="5.0 (X11; Linux x86_64) AppleWebKit/537.36 (KHTML, like Gecko) Chrome/89.0.4389.114 Safari/537.36" etag="XH7lBMZz13JzrB4FyJ_J" version="15.5.4" type="embed"><diagram id="Qr6QU7Qtxe9scO-8TlNr" name="Страница 1"><mxGraphModel dx="570" dy="484" grid="1" gridSize="10" guides="1" tooltips="1" connect="1" arrows="1" fold="1" page="1" pageScale="1" pageWidth="827" pageHeight="1169" math="0" shadow="0"><root><mxCell id="0"/><mxCell id="1" parent="0"/><mxCell id="3" value="" style="rounded=0;whiteSpace=wrap;html=1;dashed=1;shadow=0;sketch=0;labelBackgroundColor=none;labelBorderColor=none;" vertex="1" parent="1"><mxGeometry x="80" y="449" width="160" height="231" as="geometry"/></mxCell><mxCell id="JOCK_NlKJ0b9R5YVgDWU-3" value="data" style="edgeStyle=orthogonalEdgeStyle;rounded=0;orthogonalLoop=1;jettySize=auto;html=1;horizontal=0;labelPosition=center;verticalLabelPosition=top;align=center;verticalAlign=bottom;labelBackgroundColor=none;" parent="1" source="JOCK_NlKJ0b9R5YVgDWU-1" target="JOCK_NlKJ0b9R5YVgDWU-2" edge="1"><mxGeometry relative="1" as="geometry"><Array as="points"><mxPoint x="400" y="369"/><mxPoint x="400" y="369"/></Array></mxGeometry></mxCell><mxCell id="JOCK_NlKJ0b9R5YVgDWU-6" value="request, &lt;br&gt;commands" style="edgeStyle=orthogonalEdgeStyle;rounded=0;orthogonalLoop=1;jettySize=auto;html=1;horizontal=0;labelPosition=center;verticalLabelPosition=top;align=center;verticalAlign=bottom;labelBackgroundColor=none;" parent="1" source="JOCK_NlKJ0b9R5YVgDWU-1" target="JOCK_NlKJ0b9R5YVgDWU-5" edge="1"><mxGeometry relative="1" as="geometry"><Array as="points"><mxPoint x="400" y="509"/><mxPoint x="400" y="509"/></Array></mxGeometry></mxCell><mxCell id="JOCK_NlKJ0b9R5YVgDWU-9" value="sequence to log" style="edgeStyle=orthogonalEdgeStyle;rounded=0;orthogonalLoop=1;jettySize=auto;html=1;labelPosition=center;verticalLabelPosition=top;align=center;verticalAlign=bottom;fontColor=default;labelBackgroundColor=none;" parent="1" source="JOCK_NlKJ0b9R5YVgDWU-1" target="JOCK_NlKJ0b9R5YVgDWU-8" edge="1"><mxGeometry relative="1" as="geometry"/></mxCell><mxCell id="JOCK_NlKJ0b9R5YVgDWU-1" value="core:&lt;br&gt;commutating node" style="whiteSpace=wrap;html=1;aspect=fixed;" parent="1" vertex="1"><mxGeometry x="370" y="379" width="80" height="80" as="geometry"/></mxCell><mxCell id="JOCK_NlKJ0b9R5YVgDWU-4" value="commands" style="edgeStyle=orthogonalEdgeStyle;rounded=0;orthogonalLoop=1;jettySize=auto;html=1;labelPosition=center;verticalLabelPosition=bottom;align=center;verticalAlign=top;horizontal=0;labelBackgroundColor=none;" parent="1" source="JOCK_NlKJ0b9R5YVgDWU-2" target="JOCK_NlKJ0b9R5YVgDWU-1" edge="1"><mxGeometry relative="1" as="geometry"><Array as="points"><mxPoint x="420" y="349"/><mxPoint x="420" y="349"/></Array></mxGeometry></mxCell><mxCell id="JOCK_NlKJ0b9R5YVgDWU-2" value="interface: &lt;br&gt;display menu/info/results&lt;br&gt;capture commands" style="whiteSpace=wrap;html=1;" parent="1" vertex="1"><mxGeometry x="350" y="239" width="120" height="60" as="geometry"/></mxCell><mxCell id="JOCK_NlKJ0b9R5YVgDWU-7" value="data" style="edgeStyle=orthogonalEdgeStyle;rounded=0;orthogonalLoop=1;jettySize=auto;html=1;horizontal=0;labelPosition=center;verticalLabelPosition=bottom;align=center;verticalAlign=top;labelBackgroundColor=none;" parent="1" source="JOCK_NlKJ0b9R5YVgDWU-5" target="JOCK_NlKJ0b9R5YVgDWU-1" edge="1"><mxGeometry relative="1" as="geometry"><Array as="points"><mxPoint x="420" y="509"/><mxPoint x="420" y="509"/></Array></mxGeometry></mxCell><mxCell id="JOCK_NlKJ0b9R5YVgDWU-13" value="request" style="edgeStyle=orthogonalEdgeStyle;rounded=0;orthogonalLoop=1;jettySize=auto;html=1;horizontal=0;labelPosition=center;verticalLabelPosition=top;align=center;verticalAlign=bottom;labelBackgroundColor=none;" parent="1" source="JOCK_NlKJ0b9R5YVgDWU-5" target="JOCK_NlKJ0b9R5YVgDWU-12" edge="1"><mxGeometry relative="1" as="geometry"><Array as="points"><mxPoint x="400" y="610"/><mxPoint x="400" y="610"/></Array></mxGeometry></mxCell><mxCell id="JOCK_NlKJ0b9R5YVgDWU-16" value="data" style="edgeStyle=orthogonalEdgeStyle;rounded=0;orthogonalLoop=1;jettySize=auto;html=1;labelPosition=center;verticalLabelPosition=top;align=center;verticalAlign=bottom;" parent="1" source="JOCK_NlKJ0b9R5YVgDWU-5" target="JOCK_NlKJ0b9R5YVgDWU-15" edge="1"><mxGeometry x="0.5556" relative="1" as="geometry"><Array as="points"><mxPoint x="300" y="580"/><mxPoint x="300" y="620"/></Array><mxPoint as="offset"/></mxGeometry></mxCell><mxCell id="JOCK_NlKJ0b9R5YVgDWU-20" value="request" style="edgeStyle=orthogonalEdgeStyle;rounded=0;orthogonalLoop=1;jettySize=auto;html=1;labelPosition=center;verticalLabelPosition=top;align=center;verticalAlign=bottom;" parent="1" source="JOCK_NlKJ0b9R5YVgDWU-5" target="JOCK_NlKJ0b9R5YVgDWU-19" edge="1"><mxGeometry x="0.4805" relative="1" as="geometry"><Array as="points"><mxPoint x="300" y="560"/><mxPoint x="300" y="530"/></Array><mxPoint as="offset"/></mxGeometry></mxCell><mxCell id="JOCK_NlKJ0b9R5YVgDWU-5" value="data-manager:&lt;br&gt;transfer/analyze data" style="whiteSpace=wrap;html=1;" parent="1" vertex="1"><mxGeometry x="350" y="524" width="120" height="66" as="geometry"/></mxCell><mxCell id="JOCK_NlKJ0b9R5YVgDWU-11" value="string" style="edgeStyle=orthogonalEdgeStyle;rounded=0;orthogonalLoop=1;jettySize=auto;html=1;labelPosition=center;verticalLabelPosition=top;align=center;verticalAlign=bottom;labelBackgroundColor=none;horizontal=0;" parent="1" source="JOCK_NlKJ0b9R5YVgDWU-8" target="JOCK_NlKJ0b9R5YVgDWU-10" edge="1"><mxGeometry x="0.0099" relative="1" as="geometry"><mxPoint as="offset"/></mxGeometry></mxCell><mxCell id="JOCK_NlKJ0b9R5YVgDWU-8" value="logger:&lt;br&gt;time_stamp, actions, values" style="whiteSpace=wrap;html=1;" parent="1" vertex="1"><mxGeometry x="590" y="389" width="120" height="60" as="geometry"/></mxCell><mxCell id="JOCK_NlKJ0b9R5YVgDWU-10" value="history.log" style="shape=document;whiteSpace=wrap;html=1;boundedLbl=1;" parent="1" vertex="1"><mxGeometry x="590" y="560" width="120" height="80" as="geometry"/></mxCell><mxCell id="JOCK_NlKJ0b9R5YVgDWU-14" value="data" style="edgeStyle=orthogonalEdgeStyle;rounded=0;orthogonalLoop=1;jettySize=auto;html=1;horizontal=0;labelPosition=left;verticalLabelPosition=bottom;align=right;verticalAlign=top;labelBackgroundColor=none;" parent="1" source="JOCK_NlKJ0b9R5YVgDWU-12" target="JOCK_NlKJ0b9R5YVgDWU-5" edge="1"><mxGeometry relative="1" as="geometry"><Array as="points"><mxPoint x="420" y="610"/><mxPoint x="420" y="610"/></Array></mxGeometry></mxCell><mxCell id="JOCK_NlKJ0b9R5YVgDWU-26" value="data write" style="edgeStyle=orthogonalEdgeStyle;rounded=0;orthogonalLoop=1;jettySize=auto;html=1;labelBackgroundColor=none;horizontal=0;labelPosition=center;verticalLabelPosition=top;align=center;verticalAlign=bottom;" parent="1" source="JOCK_NlKJ0b9R5YVgDWU-12" target="JOCK_NlKJ0b9R5YVgDWU-25" edge="1"><mxGeometry relative="1" as="geometry"><Array as="points"><mxPoint x="400" y="740"/><mxPoint x="400" y="740"/></Array></mxGeometry></mxCell><mxCell id="JOCK_NlKJ0b9R5YVgDWU-12" value="data-base:&lt;br&gt;dump to storage, search in storage, periodic storage sorting" style="whiteSpace=wrap;html=1;" parent="1" vertex="1"><mxGeometry x="340" y="664" width="140" height="60" as="geometry"/></mxCell><mxCell id="JOCK_NlKJ0b9R5YVgDWU-18" value="" style="edgeStyle=orthogonalEdgeStyle;rounded=0;orthogonalLoop=1;jettySize=auto;html=1;" parent="1" source="JOCK_NlKJ0b9R5YVgDWU-15" target="JOCK_NlKJ0b9R5YVgDWU-22" edge="1"><mxGeometry relative="1" as="geometry"><mxPoint x="160" y="640" as="targetPoint"/></mxGeometry></mxCell><mxCell id="JOCK_NlKJ0b9R5YVgDWU-15" value="export:&lt;br&gt;encode to external format, dump" style="whiteSpace=wrap;html=1;" parent="1" vertex="1"><mxGeometry x="100" y="590" width="120" height="60" as="geometry"/></mxCell><mxCell id="JOCK_NlKJ0b9R5YVgDWU-21" value="data" style="edgeStyle=orthogonalEdgeStyle;rounded=0;orthogonalLoop=1;jettySize=auto;html=1;labelPosition=center;verticalLabelPosition=top;align=center;verticalAlign=bottom;" parent="1" source="JOCK_NlKJ0b9R5YVgDWU-19" target="JOCK_NlKJ0b9R5YVgDWU-5" edge="1"><mxGeometry x="-0.4118" relative="1" as="geometry"><Array as="points"><mxPoint x="320" y="500"/><mxPoint x="320" y="540"/></Array><mxPoint as="offset"/></mxGeometry></mxCell><mxCell id="JOCK_NlKJ0b9R5YVgDWU-19" value="import:&lt;br&gt;decode to inner format" style="whiteSpace=wrap;html=1;" parent="1" vertex="1"><mxGeometry x="100" y="480" width="120" height="60" as="geometry"/></mxCell><mxCell id="JOCK_NlKJ0b9R5YVgDWU-22" value="exported &lt;br&gt;file" style="shape=dataStorage;whiteSpace=wrap;html=1;fixedSize=1;" parent="1" vertex="1"><mxGeometry x="110" y="750" width="100" height="80" as="geometry"/></mxCell><mxCell id="JOCK_NlKJ0b9R5YVgDWU-24" value="" style="edgeStyle=orthogonalEdgeStyle;rounded=0;orthogonalLoop=1;jettySize=auto;html=1;" parent="1" source="JOCK_NlKJ0b9R5YVgDWU-23" target="JOCK_NlKJ0b9R5YVgDWU-19" edge="1"><mxGeometry relative="1" as="geometry"/></mxCell><mxCell id="JOCK_NlKJ0b9R5YVgDWU-23" value="source&lt;br&gt;file" style="shape=dataStorage;whiteSpace=wrap;html=1;fixedSize=1;" parent="1" vertex="1"><mxGeometry x="110" y="309" width="100" height="80" as="geometry"/></mxCell><mxCell id="JOCK_NlKJ0b9R5YVgDWU-27" value="data read" style="edgeStyle=orthogonalEdgeStyle;rounded=0;orthogonalLoop=1;jettySize=auto;html=1;labelBackgroundColor=none;horizontal=0;labelPosition=center;verticalLabelPosition=bottom;align=center;verticalAlign=top;" parent="1" source="JOCK_NlKJ0b9R5YVgDWU-25" target="JOCK_NlKJ0b9R5YVgDWU-12" edge="1"><mxGeometry relative="1" as="geometry"><Array as="points"><mxPoint x="430" y="750"/><mxPoint x="430" y="750"/></Array></mxGeometry></mxCell><mxCell id="JOCK_NlKJ0b9R5YVgDWU-25" value="data&lt;br&gt;&amp;nbsp;storage" style="shape=dataStorage;whiteSpace=wrap;html=1;fixedSize=1;" parent="1" vertex="1"><mxGeometry x="360" y="790" width="100" height="80" as="geometry"/></mxCell></root></mxGraphModel></diagram></mxfile>